{
  "accessors": [
    {
      "bufferView": 2,
      "componentType": 5126,
      "count": 9030,
      "max": [
        18.97260093688965,
        40.76836013793945,
        20.98765754699707
      ],
      "min": [
        -21.696430206298828,
        17.171707153320312,
        -21.615901947021484
      ],
      "type": "VEC3"
    },
    {
      "bufferView": 2,
      "byteOffset": 108360,
      "componentType": 5126,
      "count": 9030,
      "max": [
        0.9997079372406006,
        0.9981682896614075,
        0.9997678995132446
      ],
      "min": [
        -0.999687910079956,
        -0.9998641014099121,
        -0.9999933242797852
      ],
      "type": "VEC3"
    },
    {
      "bufferView": 1,
      "componentType": 5126,
      "count": 9030,
      "max": [
        0,
        2
      ],
      "min": [
        -1,
        1
      ],
      "type": "VEC2"
    },
    {
      "bufferView": 0,
      "componentType": 5125,
      "count": 29820,
      "type": "SCALAR"
    },
    {
      "bufferView": 2,
      "byteOffset": 216720,
      "componentType": 5126,
      "count": 10546,
      "max": [
        14.64299201965332,
        23.00868797302246,
        15.428330421447754
      ],
      "min": [
        -14.491435050964355,
        2.3085548877716064,
        -15.528010368347168
      ],
      "type": "VEC3"
    },
    {
      "bufferView": 2,
      "byteOffset": 343272,
      "componentType": 5126,
      "count": 10546,
      "max": [
        0.9986324906349182,
        0.9999857544898987,
        0.9999932646751404
      ],
      "min": [
        -0.9996342658996582,
        -0.9999856352806091,
        -0.999910295009613
      ],
      "type": "VEC3"
    },
    {
      "bufferView": 1,
      "byteOffset": 72240,
      "componentType": 5126,
      "count": 10546,
      "max": [
        0,
        2
      ],
      "min": [
        -1,
        1
      ],
      "type": "VEC2"
    },
    {
      "bufferView": 0,
      "byteOffset": 119280,
      "componentType": 5125,
      "count": 33816,
      "type": "SCALAR"
    },
    {
      "bufferView": 2,
      "byteOffset": 469824,
      "componentType": 5126,
      "count": 4122,
      "max": [
        14.567635536193848,
        35.351680755615234,
        16.48566246032715
      ],
      "min": [
        -17.038049697875977,
        -0.06911014020442963,
        -16.261341094970703
      ],
      "type": "VEC3"
    },
    {
      "bufferView": 2,
      "byteOffset": 519288,
      "componentType": 5126,
      "count": 4122,
      "max": [
        0.9991087913513184,
        0.9984808564186096,
        0.9991028308868408
      ],
      "min": [
        -0.9976410865783691,
        -0.9985048770904541,
        -0.9988017678260803
      ],
      "type": "VEC3"
    },
    {
      "bufferView": 1,
      "byteOffset": 156608,
      "componentType": 5126,
      "count": 4122,
      "max": [
        0,
        2.049999952316284
      ],
      "min": [
        -1,
        1
      ],
      "type": "VEC2"
    },
    {
      "bufferView": 0,
      "byteOffset": 254544,
      "componentType": 5125,
      "count": 12390,
      "type": "SCALAR"
    },
    {
      "bufferView": 2,
      "byteOffset": 568752,
      "componentType": 5126,
      "count": 807,
      "max": [
        10.44224739074707,
        32.18269729614258,
        11.858129501342773
      ],
      "min": [
        -14.082199096679688,
        21.130311965942383,
        -12.539885520935059
      ],
      "type": "VEC3"
    },
    {
      "bufferView": 2,
      "byteOffset": 578436,
      "componentType": 5126,
      "count": 807,
      "max": [
        0.998457670211792,
        0.9993656277656555,
        0.9952702522277832
      ],
      "min": [
        -0.9979754090309143,
        -0.9988760352134705,
        -0.995501697063446
      ],
      "type": "VEC3"
    },
    {
      "bufferView": 1,
      "byteOffset": 189584,
      "componentType": 5126,
      "count": 807,
      "max": [
        0,
        2
      ],
      "min": [
        -1,
        1
      ],
      "type": "VEC2"
    },
    {
      "bufferView": 0,
      "byteOffset": 304104,
      "componentType": 5125,
      "count": 3900,
      "type": "SCALAR"
    },
    {
      "bufferView": 2,
      "byteOffset": 588120,
      "componentType": 5126,
      "count": 41969,
      "max": [
        23.3560733795166,
        58.55242919921875,
        20.432140350341797
      ],
      "min": [
        -16.930797576904297,
        30.8535099029541,
        -18.996152877807617
      ],
      "type": "VEC3"
    },
    {
      "bufferView": 2,
      "byteOffset": 1091748,
      "componentType": 5126,
      "count": 41969,
      "max": [
        0.9999430775642395,
        0.9999648928642273,
        0.9999422430992126
      ],
      "min": [
        -0.9999220371246338,
        -0.9999777674674988,
        -0.9999219179153442
      ],
      "type": "VEC3"
    },
    {
      "bufferView": 1,
      "byteOffset": 196040,
      "componentType": 5126,
      "count": 41969,
      "max": [
        0,
        2
      ],
      "min": [
        -1,
        1
      ],
      "type": "VEC2"
    },
    {
      "bufferView": 0,
      "byteOffset": 319704,
      "componentType": 5125,
      "count": 180096,
      "type": "SCALAR"
    },
    {
      "bufferView": 2,
      "byteOffset": 1595376,
      "componentType": 5126,
      "count": 7555,
      "max": [
        19.020078659057617,
        53.93413162231445,
        16.478290557861328
      ],
      "min": [
        -14.093067169189453,
        -0.020482497289776802,
        -16.773073196411133
      ],
      "type": "VEC3"
    },
    {
      "bufferView": 2,
      "byteOffset": 1686036,
      "componentType": 5126,
      "count": 7555,
      "max": [
        0.9999938011169434,
        0.9999722838401794,
        0.9996212124824524
      ],
      "min": [
        -0.9998378157615662,
        -0.9999665021896362,
        -0.9979557394981384
      ],
      "type": "VEC3"
    },
    {
      "bufferView": 1,
      "byteOffset": 531792,
      "componentType": 5126,
      "count": 7555,
      "max": [
        0,
        2.049999952316284
      ],
      "min": [
        -1,
        1
      ],
      "type": "VEC2"
    },
    {
      "bufferView": 0,
      "byteOffset": 1040088,
      "componentType": 5125,
      "count": 23448,
      "type": "SCALAR"
    },
    {
      "bufferView": 2,
      "byteOffset": 1776696,
      "componentType": 5126,
      "count": 6357,
      "max": [
        19.907594680786133,
        55.321353912353516,
        16.654451370239258
      ],
      "min": [
        -13.270170211791992,
        36.5190544128418,
        -14.244331359863281
      ],
      "type": "VEC3"
    },
    {
      "bufferView": 2,
      "byteOffset": 1852980,
      "componentType": 5126,
      "count": 6357,
      "max": [
        0.9987125992774963,
        0.9989874958992004,
        0.9992685317993164
      ],
      "min": [
        -0.9987127184867859,
        -0.9985436201095581,
        -0.9994994401931763
      ],
      "type": "VEC3"
    },
    {
      "bufferView": 1,
      "byteOffset": 592232,
      "componentType": 5126,
      "count": 6357,
      "max": [
        0,
        2
      ],
      "min": [
        -1,
        1
      ],
      "type": "VEC2"
    },
    {
      "bufferView": 0,
      "byteOffset": 1133880,
      "componentType": 5125,
      "count": 19248,
      "type": "SCALAR"
    }
  ],
  "asset": {
    "extras": {
      "author": "tojamerlin (https://sketchfab.com/tojamerlin)",
      "license": "CC-BY-4.0 (http://creativecommons.org/licenses/by/4.0/)",
      "source": "https://sketchfab.com/3d-models/colored-flower-6b3020fed29c4976bc44ed1b7cb7e960",
      "title": "colored flower"
    },
    "generator": "Sketchfab-12.68.0",
    "version": "2.0"
  },
  "bufferViews": [
    {
      "buffer": 0,
      "byteLength": 1210872,
      "name": "floatBufferViews",
      "target": 34963,
      "byteOffset": 0
    },
    {
      "buffer": 0,
      "byteLength": 643088,
      "byteOffset": 1210872,
      "byteStride": 8,
      "name": "floatBufferViews",
      "target": 34962
    },
    {
      "buffer": 0,
      "byteLength": 1929264,
      "byteOffset": 1853960,
      "byteStride": 12,
      "name": "floatBufferViews",
      "target": 34962
    }
  ],
  "buffers": [
    {
      "uri": "PlantFlower_data.bin",
      "byteLength": 3783224
    }
  ],
  "images": [
    {
      "uri": "PlantFlower_img0.png"
    },
    {
      "uri": "PlantFlower_img1.png"
    },
    {
      "uri": "PlantFlower_img2.png"
    },
    {
      "uri": "PlantFlower_img3.png"
    },
    {
      "uri": "PlantFlower_img4.png"
    },
    {
      "uri": "PlantFlower_img5.png"
    },
    {
      "uri": "PlantFlower_img6.png"
    }
  ],
  "materials": [
    {
      "doubleSided": true,
      "name": "Petal_flower_patch",
      "pbrMetallicRoughness": {
        "baseColorTexture": {
          "index": 0
        },
        "metallicFactor": 0,
        "roughnessFactor": 0.6
      }
    },
    {
      "doubleSided": true,
      "name": "Leaf_flower_patch",
      "pbrMetallicRoughness": {
        "baseColorTexture": {
          "index": 1
        },
        "metallicFactor": 0,
        "roughnessFactor": 0.6
      }
    },
    {
      "doubleSided": true,
      "name": "Stem_flower_patch",
      "pbrMetallicRoughness": {
        "baseColorTexture": {
          "index": 2
        },
        "metallicFactor": 0,
        "roughnessFactor": 0.6
      }
    },
    {
      "doubleSided": true,
      "name": "Stigma_flower_patch",
      "pbrMetallicRoughness": {
        "baseColorTexture": {
          "index": 3
        },
        "metallicFactor": 0,
        "roughnessFactor": 0.6
      }
    },
    {
      "doubleSided": true,
      "name": "Petal_wild",
      "pbrMetallicRoughness": {
        "baseColorTexture": {
          "index": 4
        },
        "metallicFactor": 0,
        "roughnessFactor": 0.6
      }
    },
    {
      "doubleSided": true,
      "name": "Leaf_wild",
      "pbrMetallicRoughness": {
        "baseColorTexture": {
          "index": 5
        },
        "metallicFactor": 0,
        "roughnessFactor": 0.6
      }
    },
    {
      "doubleSided": true,
      "name": "Stigma_wild",
      "pbrMetallicRoughness": {
        "baseColorTexture": {
          "index": 6
        },
        "metallicFactor": 0,
        "roughnessFactor": 0.6
      }
    }
  ],
  "meshes": [
    {
      "name": "flower_patch_2_Petal_flower patch_0",
      "primitives": [
        {
          "attributes": {
            "NORMAL": 1,
            "POSITION": 0,
            "TEXCOORD_0": 2
          },
          "indices": 3,
          "material": 0,
          "mode": 4
        }
      ]
    },
    {
      "name": "flower_patch_2_Leaf_flower patch_0",
      "primitives": [
        {
          "attributes": {
            "NORMAL": 5,
            "POSITION": 4,
            "TEXCOORD_0": 6
          },
          "indices": 7,
          "material": 1,
          "mode": 4
        }
      ]
    },
    {
      "name": "flower_patch_2_Stem_flower patch_0",
      "primitives": [
        {
          "attributes": {
            "NORMAL": 9,
            "POSITION": 8,
            "TEXCOORD_0": 10
          },
          "indices": 11,
          "material": 2,
          "mode": 4
        }
      ]
    },
    {
      "name": "flower_patch_2_Stigma_flower patch_0",
      "primitives": [
        {
          "attributes": {
            "NORMAL": 13,
            "POSITION": 12,
            "TEXCOORD_0": 14
          },
          "indices": 15,
          "material": 3,
          "mode": 4
        }
      ]
    },
    {
      "name": "Wide_leaf_2_Petal_wild_0",
      "primitives": [
        {
          "attributes": {
            "NORMAL": 17,
            "POSITION": 16,
            "TEXCOORD_0": 18
          },
          "indices": 19,
          "material": 4,
          "mode": 4
        }
      ]
    },
    {
      "name": "Wide_leaf_2_Leaf_wild_0",
      "primitives": [
        {
          "attributes": {
            "NORMAL": 21,
            "POSITION": 20,
            "TEXCOORD_0": 22
          },
          "indices": 23,
          "material": 5,
          "mode": 4
        }
      ]
    },
    {
      "name": "Wide_leaf_2_Stigma_wild_0",
      "primitives": [
        {
          "attributes": {
            "NORMAL": 25,
            "POSITION": 24,
            "TEXCOORD_0": 26
          },
          "indices": 27,
          "material": 6,
          "mode": 4
        }
      ]
    }
  ],
  "nodes": [
    {
      "children": [
        1
      ],
      "matrix": [
        1,
        0,
        0,
        0,
        0,
        2.220446049250313e-16,
        -1,
        0,
        0,
        1,
        2.220446049250313e-16,
        0,
        0,
        0,
        0,
        1
      ],
      "name": "Sketchfab_model"
    },
    {
      "children": [
        2
      ],
      "matrix": [
        1,
        0,
        0,
        0,
        0,
        0,
        1,
        0,
        0,
        -1,
        0,
        0,
        0,
        0,
        0,
        1
      ],
      "name": "07facdd1e55b4258afbb4bc3c5b77840.fbx"
    },
    {
      "children": [
        3,
        8
      ],
      "name": "RootNode"
    },
    {
      "children": [
        4,
        5,
        6,
        7
      ],
      "name": "flower_patch_2"
    },
    {
      "mesh": 0,
      "name": "flower_patch_2_Petal_flower patch_0"
    },
    {
      "mesh": 1,
      "name": "flower_patch_2_Leaf_flower patch_0"
    },
    {
      "mesh": 2,
      "name": "flower_patch_2_Stem_flower patch_0"
    },
    {
      "mesh": 3,
      "name": "flower_patch_2_Stigma_flower patch_0"
    },
    {
      "children": [
        9,
        10,
        11
      ],
      "matrix": [
        1,
        0,
        0,
        0,
        0,
        1,
        0,
        0,
        0,
        0,
        1,
        0,
        0.00040921560139395297,
        0,
        -0.00033376217470504344,
        1
      ],
      "name": "Wide_leaf_2"
    },
    {
      "mesh": 4,
      "name": "Wide_leaf_2_Petal_wild_0"
    },
    {
      "mesh": 5,
      "name": "Wide_leaf_2_Leaf_wild_0"
    },
    {
      "mesh": 6,
      "name": "Wide_leaf_2_Stigma_wild_0"
    }
  ],
  "samplers": [
    {
      "magFilter": 9729,
      "minFilter": 9987,
      "wrapS": 10497,
      "wrapT": 10497
    }
  ],
  "scene": 0,
  "scenes": [
    {
      "name": "Sketchfab_Scene",
      "nodes": [
        0
      ]
    }
  ],
  "textures": [
    {
      "sampler": 0,
      "source": 0
    },
    {
      "sampler": 0,
      "source": 1
    },
    {
      "sampler": 0,
      "source": 2
    },
    {
      "sampler": 0,
      "source": 3
    },
    {
      "sampler": 0,
      "source": 4
    },
    {
      "sampler": 0,
      "source": 5
    },
    {
      "sampler": 0,
      "source": 6
    }
  ]
}